<?xml version="1.0" encoding="utf-8"?>
<!-- Generator: Adobe Illustrator 18.1.1, SVG Export Plug-In . SVG Version: 6.00 Build 0)  -->
<!DOCTYPE svg PUBLIC "-//W3C//DTD SVG 1.0//EN" "http://www.w3.org/TR/2001/REC-SVG-20010904/DTD/svg10.dtd">
<svg version="1.0" id="Layer_1" xmlns="http://www.w3.org/2000/svg" xmlns:xlink="http://www.w3.org/1999/xlink" x="0px" y="0px"
	 width="12.5px" height="15.9px" viewBox="-368 660.1 12.5 15.9" enable-background="new -368 660.1 12.5 15.9"
	 xml:space="preserve">
<path d="M-361.5,664.2c-0.3-1.3-0.1-2.9,2.6-4.1C-358.3,662.1-360.2,663.8-361.5,664.2z M-364.5,664.2c-1.1,0-3.5,1.5-3.5,4.8
	s2.7,7,4.1,7c0.8,0,1.4-0.7,2.2-0.7s1.4,0.7,2.8,0.7c2.1,0,3-2.8,3.4-3.8c-0.4-0.4-2.1-2.3-2.1-3.2c0-0.9,0.9-2.7,1.8-3.5
	c0-0.3-1.1-1.3-2.8-1.4c-1.7-0.1-2.5,0.9-3,0.9C-361.9,665-363.1,664.2-364.5,664.2z"/>
</svg>
