<?xml version="1.0" encoding="utf-8"?>
<!-- Generator: Adobe Illustrator 18.1.1, SVG Export Plug-In . SVG Version: 6.00 Build 0)  -->
<!DOCTYPE svg PUBLIC "-//W3C//DTD SVG 1.0//EN" "http://www.w3.org/TR/2001/REC-SVG-20010904/DTD/svg10.dtd">
<svg version="1.0" id="Layer_1" xmlns="http://www.w3.org/2000/svg" xmlns:xlink="http://www.w3.org/1999/xlink" x="0px" y="0px"
	 width="14px" height="16.8px" viewBox="-367 659.2 14 16.8" enable-background="new -367 659.2 14 16.8" xml:space="preserve">
<path d="M-363.3,663.9c-0.1,0-0.2-0.1-0.2-0.2V661c0-0.1,0.3-1.6,2-1.8c1.1-0.1,1.7,0.2,2,0.5c0.3,0.2,0.4,0.6,0.4,0.9v2.1
	c0,0.1-0.1,0.2-0.2,0.2s-0.2-0.1-0.2-0.2v-2.1c0-0.2-0.1-0.4-0.3-0.6c-0.4-0.2-1-0.4-1.7-0.3c-1.3,0.2-1.6,1.4-1.6,1.4v2.6
	C-363.1,663.8-363.2,663.9-363.3,663.9z M-356.9,662.8V662c0-0.5-0.5-1.2-1.5-1.4c-0.1,0-0.2,0.1-0.3,0.2c0,0.1,0.1,0.2,0.2,0.3
	c0.8,0.1,1.1,0.6,1.1,0.9v0.8c0,0.1,0.1,0.2,0.2,0.2C-357,663-356.9,662.9-356.9,662.8z M-360.9,663.2v-0.8c0,0,0.2-0.8,0.9-1.2
	c0.1-0.1,0.2-0.2,0.1-0.3c0-0.1-0.1-0.1-0.3-0.1c-1,0.5-1.2,1.4-1.2,1.5v0.9c0,0.1,0.1,0.2,0.2,0.2
	C-361.1,663.4-360.9,663.4-360.9,663.2z M-353,663.9v11.2l-2.3,0.9l-11.7-2.5v-8.4l11.9-2.1L-353,663.9z M-362.2,669.8h-3.1v1.9
	l3.1,0.6V669.8z M-362.2,666.6l-3.1,0.3v2.5h3.1V666.6z M-358.2,669.8h-3.6v2.5l3.5,0.6L-358.2,669.8L-358.2,669.8z M-358.2,666.1
	l-3.6,0.4v2.9h3.5L-358.2,666.1L-358.2,666.1z"/>
</svg>
